<mxfile host="app.diagrams.net" agent="Mozilla/5.0 (Windows NT 10.0; Win64; x64) AppleWebKit/537.36 (KHTML, like Gecko) Chrome/133.0.0.0 Safari/537.36 Edg/133.0.0.0" version="26.0.16" pages="3">
  <diagram name="PÃ¡gina-1" id="ogge8-_6Jd_EHUrqvTca">
    <mxGraphModel dx="1426" dy="781" grid="1" gridSize="10" guides="1" tooltips="1" connect="1" arrows="1" fold="1" page="1" pageScale="1" pageWidth="827" pageHeight="1169" math="0" shadow="0">
      <root>
        <mxCell id="0" />
        <mxCell id="1" parent="0" />
        <mxCell id="XoWQ6cGHckV2U2QFHH8R-12" value="" style="rounded=0;whiteSpace=wrap;html=1;" vertex="1" parent="1">
          <mxGeometry x="30" y="390" width="350" height="100" as="geometry" />
        </mxCell>
        <mxCell id="XoWQ6cGHckV2U2QFHH8R-13" value="" style="endArrow=none;html=1;rounded=0;" edge="1" parent="1">
          <mxGeometry width="50" height="50" relative="1" as="geometry">
            <mxPoint x="30" y="490" as="sourcePoint" />
            <mxPoint x="80" y="440" as="targetPoint" />
          </mxGeometry>
        </mxCell>
        <mxCell id="XoWQ6cGHckV2U2QFHH8R-15" value="" style="endArrow=none;html=1;rounded=0;" edge="1" parent="1" target="XoWQ6cGHckV2U2QFHH8R-12">
          <mxGeometry width="50" height="50" relative="1" as="geometry">
            <mxPoint x="80" y="490" as="sourcePoint" />
            <mxPoint x="130" y="440" as="targetPoint" />
            <Array as="points">
              <mxPoint x="140" y="440" />
            </Array>
          </mxGeometry>
        </mxCell>
        <mxCell id="XoWQ6cGHckV2U2QFHH8R-16" value="" style="endArrow=none;html=1;rounded=0;" edge="1" parent="1" target="XoWQ6cGHckV2U2QFHH8R-12">
          <mxGeometry width="50" height="50" relative="1" as="geometry">
            <mxPoint x="130" y="490" as="sourcePoint" />
            <mxPoint x="180" y="440" as="targetPoint" />
            <Array as="points">
              <mxPoint x="190" y="440" />
            </Array>
          </mxGeometry>
        </mxCell>
        <mxCell id="XoWQ6cGHckV2U2QFHH8R-17" value="" style="endArrow=none;html=1;rounded=0;" edge="1" parent="1">
          <mxGeometry width="50" height="50" relative="1" as="geometry">
            <mxPoint x="180" y="490" as="sourcePoint" />
            <mxPoint x="230" y="440" as="targetPoint" />
          </mxGeometry>
        </mxCell>
        <mxCell id="XoWQ6cGHckV2U2QFHH8R-18" value="" style="endArrow=none;html=1;rounded=0;" edge="1" parent="1">
          <mxGeometry width="50" height="50" relative="1" as="geometry">
            <mxPoint x="230" y="490" as="sourcePoint" />
            <mxPoint x="280" y="440" as="targetPoint" />
          </mxGeometry>
        </mxCell>
        <mxCell id="XoWQ6cGHckV2U2QFHH8R-19" value="" style="endArrow=none;html=1;rounded=0;" edge="1" parent="1">
          <mxGeometry width="50" height="50" relative="1" as="geometry">
            <mxPoint x="280" y="490" as="sourcePoint" />
            <mxPoint x="320" y="440" as="targetPoint" />
          </mxGeometry>
        </mxCell>
        <mxCell id="XoWQ6cGHckV2U2QFHH8R-23" value="" style="edgeStyle=orthogonalEdgeStyle;rounded=0;orthogonalLoop=1;jettySize=auto;html=1;" edge="1" parent="1" source="XoWQ6cGHckV2U2QFHH8R-20">
          <mxGeometry relative="1" as="geometry">
            <mxPoint x="300" y="120" as="targetPoint" />
          </mxGeometry>
        </mxCell>
        <mxCell id="XoWQ6cGHckV2U2QFHH8R-26" value="" style="edgeStyle=orthogonalEdgeStyle;rounded=0;orthogonalLoop=1;jettySize=auto;html=1;" edge="1" parent="1" source="XoWQ6cGHckV2U2QFHH8R-20" target="XoWQ6cGHckV2U2QFHH8R-27">
          <mxGeometry relative="1" as="geometry">
            <mxPoint x="210" y="300" as="targetPoint" />
            <Array as="points">
              <mxPoint x="130" y="245" />
              <mxPoint x="121" y="245" />
            </Array>
          </mxGeometry>
        </mxCell>
        <mxCell id="XoWQ6cGHckV2U2QFHH8R-20" value="&lt;span style=&quot;background-color: transparent; color: light-dark(rgb(0, 0, 0), rgb(255, 255, 255));&quot;&gt;Recepcionista&lt;/span&gt;" style="shape=umlActor;verticalLabelPosition=bottom;verticalAlign=top;html=1;outlineConnect=0;" vertex="1" parent="1">
          <mxGeometry x="110" y="95" width="40" height="75" as="geometry" />
        </mxCell>
        <mxCell id="XoWQ6cGHckV2U2QFHH8R-24" value="&lt;div&gt;&lt;span style=&quot;background-color: transparent; color: light-dark(rgb(0, 0, 0), rgb(255, 255, 255));&quot;&gt;Confirmar reserva&lt;/span&gt;&lt;/div&gt;" style="ellipse;whiteSpace=wrap;html=1;" vertex="1" parent="1">
          <mxGeometry x="310" y="90" width="120" height="80" as="geometry" />
        </mxCell>
        <mxCell id="XoWQ6cGHckV2U2QFHH8R-27" value="Gerenciar disponibilidade de quartos" style="ellipse;whiteSpace=wrap;html=1;" vertex="1" parent="1">
          <mxGeometry x="210" y="250" width="120" height="80" as="geometry" />
        </mxCell>
        <mxCell id="XoWQ6cGHckV2U2QFHH8R-30" value="" style="endArrow=none;html=1;rounded=0;" edge="1" parent="1">
          <mxGeometry width="50" height="50" relative="1" as="geometry">
            <mxPoint x="320" y="490" as="sourcePoint" />
            <mxPoint x="380" y="440" as="targetPoint" />
          </mxGeometry>
        </mxCell>
        <mxCell id="XoWQ6cGHckV2U2QFHH8R-33" value="" style="endArrow=none;html=1;rounded=0;" edge="1" parent="1">
          <mxGeometry width="50" height="50" relative="1" as="geometry">
            <mxPoint x="320" y="440" as="sourcePoint" />
            <mxPoint x="270" y="390" as="targetPoint" />
            <Array as="points">
              <mxPoint x="300" y="420" />
              <mxPoint x="290" y="410" />
            </Array>
          </mxGeometry>
        </mxCell>
        <mxCell id="XoWQ6cGHckV2U2QFHH8R-8" value="" style="shape=or;whiteSpace=wrap;html=1;" vertex="1" parent="1">
          <mxGeometry x="380" y="330" width="200" height="220" as="geometry" />
        </mxCell>
        <mxCell id="XoWQ6cGHckV2U2QFHH8R-6" value="" style="shape=dataStorage;whiteSpace=wrap;html=1;fixedSize=1;direction=west;" vertex="1" parent="1">
          <mxGeometry x="420" y="280" width="140" height="320" as="geometry" />
        </mxCell>
        <mxCell id="XoWQ6cGHckV2U2QFHH8R-9" value="" style="triangle;whiteSpace=wrap;html=1;" vertex="1" parent="1">
          <mxGeometry x="380" y="380" width="280" height="120" as="geometry" />
        </mxCell>
        <mxCell id="XoWQ6cGHckV2U2QFHH8R-10" value="" style="rhombus;whiteSpace=wrap;html=1;" vertex="1" parent="1">
          <mxGeometry x="380" y="400" width="320" height="80" as="geometry" />
        </mxCell>
        <mxCell id="XoWQ6cGHckV2U2QFHH8R-34" value="" style="endArrow=none;html=1;rounded=0;" edge="1" parent="1">
          <mxGeometry width="50" height="50" relative="1" as="geometry">
            <mxPoint x="50" y="390" as="sourcePoint" />
            <mxPoint x="80" y="440" as="targetPoint" />
          </mxGeometry>
        </mxCell>
        <mxCell id="XoWQ6cGHckV2U2QFHH8R-35" value="" style="endArrow=none;html=1;rounded=0;" edge="1" parent="1">
          <mxGeometry width="50" height="50" relative="1" as="geometry">
            <mxPoint x="80" y="390" as="sourcePoint" />
            <mxPoint x="140" y="440" as="targetPoint" />
          </mxGeometry>
        </mxCell>
        <mxCell id="XoWQ6cGHckV2U2QFHH8R-36" value="" style="endArrow=none;html=1;rounded=0;" edge="1" parent="1">
          <mxGeometry width="50" height="50" relative="1" as="geometry">
            <mxPoint x="130" y="390" as="sourcePoint" />
            <mxPoint x="190" y="440" as="targetPoint" />
          </mxGeometry>
        </mxCell>
        <mxCell id="XoWQ6cGHckV2U2QFHH8R-37" value="" style="endArrow=none;html=1;rounded=0;" edge="1" parent="1">
          <mxGeometry width="50" height="50" relative="1" as="geometry">
            <mxPoint x="180" y="390" as="sourcePoint" />
            <mxPoint x="230" y="440" as="targetPoint" />
          </mxGeometry>
        </mxCell>
        <mxCell id="XoWQ6cGHckV2U2QFHH8R-38" value="" style="endArrow=none;html=1;rounded=0;" edge="1" parent="1">
          <mxGeometry width="50" height="50" relative="1" as="geometry">
            <mxPoint x="230" y="390" as="sourcePoint" />
            <mxPoint x="280" y="440" as="targetPoint" />
          </mxGeometry>
        </mxCell>
        <mxCell id="XoWQ6cGHckV2U2QFHH8R-39" value="" style="endArrow=none;html=1;rounded=0;" edge="1" parent="1" target="XoWQ6cGHckV2U2QFHH8R-12">
          <mxGeometry width="50" height="50" relative="1" as="geometry">
            <mxPoint x="280" y="390" as="sourcePoint" />
            <mxPoint x="330" y="430" as="targetPoint" />
          </mxGeometry>
        </mxCell>
        <mxCell id="XoWQ6cGHckV2U2QFHH8R-40" value="" style="endArrow=none;html=1;rounded=0;" edge="1" parent="1">
          <mxGeometry width="50" height="50" relative="1" as="geometry">
            <mxPoint x="310" y="390" as="sourcePoint" />
            <mxPoint x="380" y="440" as="targetPoint" />
          </mxGeometry>
        </mxCell>
        <mxCell id="XoWQ6cGHckV2U2QFHH8R-41" value="" style="ellipse;whiteSpace=wrap;html=1;" vertex="1" parent="1">
          <mxGeometry x="440" y="310" width="80" height="80" as="geometry" />
        </mxCell>
        <mxCell id="XoWQ6cGHckV2U2QFHH8R-42" value="" style="shape=waypoint;sketch=0;size=6;pointerEvents=1;points=[];fillColor=default;resizable=0;rotatable=0;perimeter=centerPerimeter;snapToPoint=1;" vertex="1" parent="1">
          <mxGeometry x="400" y="510" width="20" height="20" as="geometry" />
        </mxCell>
        <mxCell id="4OCaEM3C5Yv-vcgC4hb_-1" value="" style="ellipse;whiteSpace=wrap;html=1;aspect=fixed;" vertex="1" parent="1">
          <mxGeometry x="450" y="490" width="80" height="80" as="geometry" />
        </mxCell>
        <mxCell id="4OCaEM3C5Yv-vcgC4hb_-2" value="" style="shape=waypoint;sketch=0;size=6;pointerEvents=1;points=[];fillColor=default;resizable=0;rotatable=0;perimeter=centerPerimeter;snapToPoint=1;" vertex="1" parent="1">
          <mxGeometry x="394" y="350" width="20" height="20" as="geometry" />
        </mxCell>
      </root>
    </mxGraphModel>
  </diagram>
  <diagram id="qdLD1MH6CDKLQ64ng508" name="PÃ¡gina-2">
    <mxGraphModel dx="1426" dy="781" grid="1" gridSize="10" guides="1" tooltips="1" connect="1" arrows="1" fold="1" page="1" pageScale="1" pageWidth="827" pageHeight="1169" math="0" shadow="0">
      <root>
        <mxCell id="0" />
        <mxCell id="1" parent="0" />
        <mxCell id="-W4Wy8j6zQ7PrDmYyQHL-4" value="" style="edgeStyle=orthogonalEdgeStyle;rounded=0;orthogonalLoop=1;jettySize=auto;html=1;" edge="1" parent="1" source="-W4Wy8j6zQ7PrDmYyQHL-1">
          <mxGeometry relative="1" as="geometry">
            <mxPoint x="380" y="275" as="targetPoint" />
          </mxGeometry>
        </mxCell>
        <mxCell id="-W4Wy8j6zQ7PrDmYyQHL-7" value="" style="edgeStyle=orthogonalEdgeStyle;rounded=0;orthogonalLoop=1;jettySize=auto;html=1;" edge="1" parent="1" source="-W4Wy8j6zQ7PrDmYyQHL-1">
          <mxGeometry relative="1" as="geometry">
            <mxPoint x="230" y="500" as="targetPoint" />
            <Array as="points">
              <mxPoint x="200" y="350" />
              <mxPoint x="231" y="350" />
            </Array>
          </mxGeometry>
        </mxCell>
        <mxCell id="-W4Wy8j6zQ7PrDmYyQHL-1" value="Cliente" style="shape=umlActor;verticalLabelPosition=bottom;verticalAlign=top;html=1;outlineConnect=0;" vertex="1" parent="1">
          <mxGeometry x="160" y="240" width="40" height="70" as="geometry" />
        </mxCell>
        <mxCell id="-W4Wy8j6zQ7PrDmYyQHL-5" value="Comprar reserva" style="ellipse;whiteSpace=wrap;html=1;" vertex="1" parent="1">
          <mxGeometry x="380" y="235" width="120" height="80" as="geometry" />
        </mxCell>
        <mxCell id="-W4Wy8j6zQ7PrDmYyQHL-8" value="cancelar reserva" style="ellipse;whiteSpace=wrap;html=1;" vertex="1" parent="1">
          <mxGeometry x="170" y="505" width="120" height="80" as="geometry" />
        </mxCell>
      </root>
    </mxGraphModel>
  </diagram>
  <diagram id="hobFXBEBdPQoZ_udD2Zw" name="PÃ¡gina-3">
    <mxGraphModel dx="1426" dy="781" grid="1" gridSize="10" guides="1" tooltips="1" connect="1" arrows="1" fold="1" page="1" pageScale="1" pageWidth="827" pageHeight="1169" math="0" shadow="0">
      <root>
        <mxCell id="0" />
        <mxCell id="1" parent="0" />
        <mxCell id="bfWNwsFM7S4uzGEv9WrQ-1" value="Actor" style="shape=umlActor;verticalLabelPosition=bottom;verticalAlign=top;html=1;outlineConnect=0;" vertex="1" parent="1">
          <mxGeometry x="90" y="300" width="40" height="70" as="geometry" />
        </mxCell>
        <mxCell id="bfWNwsFM7S4uzGEv9WrQ-2" value="Actor" style="shape=umlActor;verticalLabelPosition=bottom;verticalAlign=top;html=1;outlineConnect=0;" vertex="1" parent="1">
          <mxGeometry x="760" y="380" width="40" height="70" as="geometry" />
        </mxCell>
        <mxCell id="bfWNwsFM7S4uzGEv9WrQ-7" value="" style="endArrow=none;html=1;rounded=0;" edge="1" parent="1">
          <mxGeometry width="50" height="50" relative="1" as="geometry">
            <mxPoint x="150" y="320" as="sourcePoint" />
            <mxPoint x="200" y="270" as="targetPoint" />
          </mxGeometry>
        </mxCell>
        <mxCell id="bfWNwsFM7S4uzGEv9WrQ-8" value="" style="ellipse;whiteSpace=wrap;html=1;" vertex="1" parent="1">
          <mxGeometry x="200" y="230" width="100" height="60" as="geometry" />
        </mxCell>
        <mxCell id="bfWNwsFM7S4uzGEv9WrQ-9" value="" style="endArrow=none;html=1;rounded=0;" edge="1" parent="1">
          <mxGeometry width="50" height="50" relative="1" as="geometry">
            <mxPoint x="150" y="334.5" as="sourcePoint" />
            <mxPoint x="240" y="334.5" as="targetPoint" />
          </mxGeometry>
        </mxCell>
        <mxCell id="bfWNwsFM7S4uzGEv9WrQ-10" value="" style="ellipse;whiteSpace=wrap;html=1;" vertex="1" parent="1">
          <mxGeometry x="250" y="310" width="100" height="55" as="geometry" />
        </mxCell>
        <mxCell id="bfWNwsFM7S4uzGEv9WrQ-11" value="" style="endArrow=none;html=1;rounded=0;" edge="1" parent="1">
          <mxGeometry width="50" height="50" relative="1" as="geometry">
            <mxPoint x="150" y="380" as="sourcePoint" />
            <mxPoint x="200" y="430" as="targetPoint" />
          </mxGeometry>
        </mxCell>
        <mxCell id="bfWNwsFM7S4uzGEv9WrQ-12" value="" style="ellipse;whiteSpace=wrap;html=1;" vertex="1" parent="1">
          <mxGeometry x="200" y="410" width="110" height="60" as="geometry" />
        </mxCell>
        <mxCell id="bfWNwsFM7S4uzGEv9WrQ-15" value="" style="endArrow=classic;html=1;rounded=0;" edge="1" parent="1">
          <mxGeometry width="50" height="50" relative="1" as="geometry">
            <mxPoint x="250" y="470" as="sourcePoint" />
            <mxPoint x="250" y="560" as="targetPoint" />
          </mxGeometry>
        </mxCell>
        <mxCell id="bfWNwsFM7S4uzGEv9WrQ-16" value="informar endereÃ§o&amp;nbsp;&amp;nbsp;" style="ellipse;whiteSpace=wrap;html=1;" vertex="1" parent="1">
          <mxGeometry x="195" y="570" width="110" height="50" as="geometry" />
        </mxCell>
        <mxCell id="bfWNwsFM7S4uzGEv9WrQ-17" value="" style="endArrow=classic;html=1;rounded=0;" edge="1" parent="1" target="bfWNwsFM7S4uzGEv9WrQ-20">
          <mxGeometry width="50" height="50" relative="1" as="geometry">
            <mxPoint x="305" y="450" as="sourcePoint" />
            <mxPoint x="385" y="590" as="targetPoint" />
          </mxGeometry>
        </mxCell>
        <mxCell id="bfWNwsFM7S4uzGEv9WrQ-19" value="" style="endArrow=classic;html=1;rounded=0;" edge="1" parent="1">
          <mxGeometry width="50" height="50" relative="1" as="geometry">
            <mxPoint x="310" y="439.5" as="sourcePoint" />
            <mxPoint x="490" y="440" as="targetPoint" />
          </mxGeometry>
        </mxCell>
        <mxCell id="bfWNwsFM7S4uzGEv9WrQ-20" value="preencher dados do cartÃ£o de crÃ©dito" style="ellipse;whiteSpace=wrap;html=1;" vertex="1" parent="1">
          <mxGeometry x="349" y="580" width="130" height="55" as="geometry" />
        </mxCell>
        <mxCell id="bfWNwsFM7S4uzGEv9WrQ-21" value="verificar dados do cartÃ£o de crÃ©dito" style="ellipse;whiteSpace=wrap;html=1;" vertex="1" parent="1">
          <mxGeometry x="490" y="410" width="110" height="60" as="geometry" />
        </mxCell>
        <mxCell id="bfWNwsFM7S4uzGEv9WrQ-22" value="faturar compra" style="ellipse;whiteSpace=wrap;html=1;" vertex="1" parent="1">
          <mxGeometry x="570" y="510" width="120" height="60" as="geometry" />
        </mxCell>
        <mxCell id="bfWNwsFM7S4uzGEv9WrQ-23" value="" style="endArrow=none;html=1;rounded=0;" edge="1" parent="1">
          <mxGeometry width="50" height="50" relative="1" as="geometry">
            <mxPoint x="600" y="450" as="sourcePoint" />
            <mxPoint x="750" y="420" as="targetPoint" />
          </mxGeometry>
        </mxCell>
        <mxCell id="bfWNwsFM7S4uzGEv9WrQ-24" value="" style="endArrow=none;html=1;rounded=0;" edge="1" parent="1">
          <mxGeometry width="50" height="50" relative="1" as="geometry">
            <mxPoint x="660" y="510" as="sourcePoint" />
            <mxPoint x="760" y="450" as="targetPoint" />
          </mxGeometry>
        </mxCell>
      </root>
    </mxGraphModel>
  </diagram>
</mxfile>
